# File created by Blade
# Date/Time:  Tue Sep 30 19:36:50 2014
#---------------------------------------------------------
:version 1.10
:name HOM
:units
  mass 1.0
  length 1.000000
  angle deg
:documentation
     Acclaim Skeleton File
:root
   axis xyz
   order TX TY TZ RX RY RZ
   position 0.000000 0.000000 0.000000
   orientation 0 0 0
:bonedata
   begin
      id 1
      name Spine_dum
      direction 0.000000 1.000000 0.000000
      length 3.241213
      axis 0.0 0.0 0.0 xyz
   end
   begin
      id 2
      name LeftUpLeg_dum
      direction 1.000000 0.000000 0.000000
      length 3.434019
      axis 0.0 0.0 0.0 xyz
   end
   begin
      id 3
      name RightUpLeg_dum
      direction -1.000000 0.000000 0.000000
      length 3.434019
      axis 0.0 0.0 0.0 xyz
   end
   begin
      id 4
      name Spine
      direction 0.000000 1.000000 0.000000
      length 0.000000
      axis 0.0 0.0 0.0 xyz
      dof rx ry rz
   end
   begin
      id 5
      name Spine_dum1
      direction 0.000000 1.000000 0.000000
      length 18.382958
      axis 0.0 0.0 0.0 xyz
   end
   begin
      id 6
      name Spine_dum2
      direction 0.000000 1.000000 0.000000
      length 12.828261
      axis 0.0 0.0 0.0 xyz
   end
   begin
      id 7
      name Spine_dum3
      direction 0.000000 1.000000 0.000000
      length 12.828261
      axis 0.0 0.0 0.0 xyz
   end
   begin
      id 8
      name Head
      direction 0.000000 1.000000 0.000000
      length 4.527550
      axis 0.0 0.0 0.0 xyz
      dof rx ry rz
   end
   begin
      id 9
      name LeftShoulder
      direction 1.000000 0.000000 0.000000
      length 7.748055
      axis 0.0 0.0 -90.0 xyz
      dof rx ry rz
   end
   begin
      id 10
      name LeftArm
      direction 1.000000 0.000000 0.000000
      length 10.635614
      axis 0.0 0.0 -90.0 xyz
      dof rx ry rz
   end
   begin
      id 11
      name LeftForeArm
      direction 1.000000 0.000000 0.000000
      length 8.346755
      axis 0.0 0.0 -90.0 xyz
      dof ry rz rx
   end
   begin
      id 12
      name LeftHand
      direction 0.000000 0.000000 0.000000
      length 0.000000
      axis 0.0 0.0 -90.0 xyz
      dof rx ry rz
   end
   begin
      id 13
      name LeftHand_dum1
      direction 0.000000 0.000000 0.000000
      length 0.000000
      axis 0.0 0.0 -90.0 xyz
   end
   begin
      id 14
      name LeftHand_dum2
      direction 1.000000 0.000000 0.000000
      length 3.937000
      axis 0.0 0.0 -90.0 xyz
   end
   begin
      id 15
      name LeftHandThumb1
      direction 0.000000 0.000000 1.000000
      length 3.937000
      axis 0.0 0.0 -90.0 xyz
      dof rx rz ry
   end
   begin
      id 16
      name RightShoulder
      direction -1.000000 0.000000 0.000000
      length 7.748055
      axis 0.0 0.0 90.0 xyz
      dof rx ry rz
   end
   begin
      id 17
      name RightArm
      direction -1.000000 0.000000 0.000000
      length 10.635614
      axis 0.0 0.0 90.0 xyz
      dof rx ry rz
   end
   begin
      id 18
      name RightForeArm
      direction -1.000000 0.000000 0.000000
      length 8.346755
      axis 0.0 0.0 90.0 xyz
      dof ry rz rx
   end
   begin
      id 19
      name RightHand
      direction 0.000000 0.000000 0.000000
      length 0.000000
      axis 0.0 0.0 90.0 xyz
      dof rx ry rz
   end
   begin
      id 20
      name RightHand_dum1
      direction 0.000000 0.000000 0.000000
      length 0.000000
      axis 0.0 0.0 90.0 xyz
   end
   begin
      id 21
      name RightHand_dum2
      direction -1.000000 0.000000 0.000000
      length 3.937000
      axis 0.0 0.0 90.0 xyz
   end
   begin
      id 22
      name RightHandThumb1
      direction 0.000000 0.000000 1.000000
      length 3.937000
      axis 0.0 0.0 90.0 xyz
      dof rx rz ry
   end
   begin
      id 23
      name LeftUpLeg
      direction 0.000000 -1.000000 0.000000
      length 15.713025
      axis 0.0 0.0 0.0 xyz
      dof rx ry rz
   end
   begin
      id 24
      name LeftLeg
      direction 0.000000 -1.000000 0.000000
      length 14.435119
      axis 0.0 0.0 0.0 xyz
      dof rx ry rz
   end
   begin
      id 25
      name LeftFoot
      direction 0.000000 -0.258819 0.965926
      length 4.938895
      axis 15.0 0.0 0.0 xyz
      dof rx ry rz
   end
   begin
      id 26
      name LeftToeBase
      direction 0.000000 0.000000 1.000000
      length 2.952750
      axis 0.0 0.0 0.0 xyz
      dof rx ry rz
   end
   begin
      id 27
      name RightUpLeg
      direction 0.000000 -1.000000 0.000000
      length 15.713025
      axis 0.0 0.0 0.0 xyz
      dof rx ry rz
   end
   begin
      id 28
      name RightLeg
      direction 0.000000 -1.000000 0.000000
      length 14.435119
      axis 0.0 0.0 0.0 xyz
      dof rx ry rz
   end
   begin
      id 29
      name RightFoot
      direction 0.000000 -0.258819 0.965926
      length 4.938895
      axis 15.0 0.0 0.0 xyz
      dof rx ry rz
   end
   begin
      id 30
      name RightToeBase
      direction 0.000000 0.000000 1.000000
      length 2.952750
      axis 0.0 0.0 0.0 xyz
      dof rx ry rz
   end
:hierarchy
   begin
      root Spine_dum LeftUpLeg_dum RightUpLeg_dum
      Spine_dum Spine
      LeftUpLeg_dum LeftUpLeg
      RightUpLeg_dum RightUpLeg
      Spine Spine_dum1 Spine_dum2 Spine_dum3
      Spine_dum1 Head
      Spine_dum2 LeftShoulder
      Spine_dum3 RightShoulder
      LeftShoulder LeftArm
      LeftArm LeftForeArm
      LeftForeArm LeftHand
      LeftHand LeftHand_dum1 LeftHand_dum2
      LeftHand_dum1 LeftHandThumb1
      RightShoulder RightArm
      RightArm RightForeArm
      RightForeArm RightHand
      RightHand RightHand_dum1 RightHand_dum2
      RightHand_dum1 RightHandThumb1
      LeftUpLeg LeftLeg
      LeftLeg LeftFoot
      LeftFoot LeftToeBase
      RightUpLeg RightLeg
      RightLeg RightFoot
      RightFoot RightToeBase
   end

# File created by Blade
# Date/Time:  Tue Sep 23 19:06:47 2014
# Frame Rate: 120.000 fps
#------------------------------------------------------
:FULLY-SPECIFIED
:DEGREES
279
root 1.561516 32.817191 -6.633208 35.559388 -12.080853 -34.811144
Spine -22.226990 28.519706 10.115777
Head -17.112539 -6.256147 15.365677
LeftShoulder -21.544401 35.850223 31.820345
LeftArm 48.770665 -56.388716 -47.961468
LeftForeArm 93.604973 -0.000000 -0.059831
LeftHand -18.778563 -0.000000 67.276073
LeftHandThumb1 -26.253704 0.000000 33.147579
RightShoulder -3.671763 -20.273028 -7.738923
RightArm 86.973657 43.127574 127.409893
RightForeArm 67.827140 -0.000000 39.700668
RightHand -2.444998 0.000000 23.202073
RightHandThumb1 -24.326973 -0.000000 -32.862282
LeftUpLeg -43.069180 16.867724 24.182487
LeftLeg 37.782049 -0.000000 -0.000000
LeftFoot -20.042324 14.741673 -0.074912
LeftToeBase 0.734139 -0.000000 -0.000000
RightUpLeg -174.250159 -9.111680 39.283159
RightLeg 61.118861 -0.000000 -0.000000
RightFoot 38.255215 -7.139362 20.985726
RightToeBase 33.386285 -0.000000 -0.000000
280
root 1.552965 32.828692 -6.597960 35.601673 -11.949022 -35.000738
Spine -22.649423 28.463851 10.184488
Head -16.549851 -6.424493 15.530529
LeftShoulder -21.453761 35.545317 32.041897
LeftArm 48.859536 -57.109329 -47.333768
LeftForeArm 93.640273 -0.000000 0.486032
LeftHand -18.677758 -0.000000 67.196479
LeftHandThumb1 -26.253704 0.000000 33.147579
RightShoulder -3.892040 -19.749643 -7.986338
RightArm 87.606183 43.408393 127.894133
RightForeArm 67.745946 -0.000000 39.914126
RightHand -2.357890 -0.000000 23.018499
RightHandThumb1 -24.326973 -0.000000 -32.862282
LeftUpLeg -43.072675 17.133745 24.326599
LeftLeg 37.870956 -0.000000 -0.000000
LeftFoot -20.312935 14.417959 -0.457905
LeftToeBase 0.711233 -0.000000 -0.000000
RightUpLeg -174.602556 -9.456407 39.528318
RightLeg 59.792188 -0.000000 -0.000000
RightFoot 38.439674 -7.498108 21.065430
RightToeBase 33.469591 -0.000000 -0.000000
281
root 1.546984 32.840142 -6.562477 35.570551 -11.827251 -35.176473
Spine -22.966257 28.400850 10.290690
Head -16.061143 -6.525662 15.719343
LeftShoulder -21.371641 35.189562 32.252026
LeftArm 48.850687 -57.689688 -46.576022
LeftForeArm 94.005433 -0.000000 0.912600
LeftHand -19.329713 0.000000 67.528213
LeftHandThumb1 -26.253704 0.000000 33.147579
RightShoulder -4.106389 -19.227986 -8.179557
RightArm 88.270975 43.689356 128.314344
RightForeArm 67.669272 -0.000000 40.216736
RightHand -2.200437 -0.000000 22.741073
RightHandThumb1 -24.326973 -0.000000 -32.862282
LeftUpLeg -43.012804 17.399084 24.457016
LeftLeg 37.950429 -0.000000 -0.000000
LeftFoot -20.588639 14.064871 -0.848281
LeftToeBase 0.670400 -0.000000 -0.000000
RightUpLeg -174.867565 -9.843514 39.776864
RightLeg 58.398905 -0.000000 -0.000000
RightFoot 38.648984 -7.782044 20.985966
RightToeBase 33.296911 -0.000000 -0.000000
282
root 1.544395 32.850614 -6.528508 35.532826 -11.668694 -35.354513
Spine -23.246415 28.307215 10.444578
Head -15.643224 -6.737571 15.877886
LeftShoulder -21.336076 34.871045 32.422669
LeftArm 48.867540 -58.294072 -45.910039
LeftForeArm 93.750821 -0.000000 1.525290
LeftHand -19.133285 -0.000000 67.463277
LeftHandThumb1 -26.253704 0.000000 33.147579
RightShoulder -4.325500 -18.412074 -8.280361
RightArm 88.985843 44.050839 128.884827
RightForeArm 67.239244 -0.000000 40.669132
RightHand -2.332374 -0.000000 22.348515
RightHandThumb1 -24.326973 -0.000000 -32.862282
LeftUpLeg -42.967421 17.605169 24.630957
LeftLeg 38.061502 -0.000000 -0.000000
LeftFoot -20.884445 13.647047 -1.295548
LeftToeBase 0.660646 -0.000000 -0.000000
RightUpLeg -175.111551 -10.318288 40.026482
RightLeg 56.960647 -0.000000 -0.000000
RightFoot 38.653981 -8.254520 21.044339
RightToeBase 33.178196 -0.000000 -0.000000
283
root 1.542267 32.858326 -6.496282 35.389714 -11.500996 -35.493794
Spine -23.400720 28.221586 10.627240
Head -15.277203 -6.925538 15.967781
LeftShoulder -21.281414 34.565946 32.497855
LeftArm 48.842632 -58.884438 -44.986815
LeftForeArm 94.474676 -0.000000 1.900210
LeftHand -19.551177 0.000000 67.565497
LeftHandThumb1 -26.253704 0.000000 33.147579
RightShoulder -4.552582 -17.781110 -8.522969
RightArm 89.913511 44.281503 129.677155
RightForeArm 66.936816 -0.000000 40.918643
RightHand -2.256441 -0.000000 22.237903
RightHandThumb1 -24.326973 -0.000000 -32.862282
LeftUpLeg -42.861397 17.742728 24.817282
LeftLeg 38.210035 -0.000000 -0.000000
LeftFoot -21.033808 13.268386 -1.497416
LeftToeBase 0.288435 -0.000000 -0.000000
RightUpLeg -175.258432 -10.952292 40.216348
RightLeg 55.444103 -0.000000 -0.000000
RightFoot 38.491355 -8.783224 21.186983
RightToeBase 33.175887 -0.000000 -0.000000
284
root 1.542340 32.864574 -6.467477 35.198270 -11.345774 -35.650270
Spine -23.447676 28.198995 10.852537
Head -15.032327 -7.123526 16.002270
LeftShoulder -21.200231 34.233478 32.576400
LeftArm 48.660267 -59.390645 -43.970493
LeftForeArm 94.935360 0.000000 2.355031
LeftHand -19.980808 -0.000000 67.662113
LeftHandThumb1 -26.253704 0.000000 33.147579
RightShoulder -4.868461 -17.073816 -8.710314
RightArm 90.868214 44.496000 130.396253
RightForeArm 66.653216 -0.000000 41.148797
RightHand -2.293157 0.000000 22.126485
RightHandThumb1 -24.326973 -0.000000 -32.862282
LeftUpLeg -42.743260 17.876731 25.028273
LeftLeg 38.426425 -0.000000 -0.000000
LeftFoot -21.256926 12.717183 -1.935233
LeftToeBase 0.109384 -0.000000 -0.000000
RightUpLeg -175.302547 -11.583959 40.416756
RightLeg 53.842553 -0.000000 -0.000000
RightFoot 38.291065 -9.346248 21.338378
RightToeBase 33.050577 -0.000000 -0.000000
285
root 1.544908 32.870175 -6.440988 35.075659 -11.171563 -35.790867
Spine -23.578398 28.145251 11.046952
Head -14.782931 -7.305849 16.019346
LeftShoulder -21.136929 33.942965 32.690449
LeftArm 48.513529 -59.887398 -43.105007
LeftForeArm 95.123403 -0.000000 2.981672
LeftHand -19.970858 -0.000000 67.564665
LeftHandThumb1 -26.253704 0.000000 33.147579
RightShoulder -5.083273 -16.413574 -8.922372
RightArm 91.992206 44.701627 131.290064
RightForeArm 66.290781 -0.000000 41.433474
RightHand -2.331157 0.000000 21.952794
RightHandThumb1 -24.326973 -0.000000 -32.862282
LeftUpLeg -42.730887 18.003161 25.227696
LeftLeg 38.688857 -0.000000 -0.000000
LeftFoot -21.467327 12.090067 -2.466040
LeftToeBase 0.044564 -0.000000 -0.000000
RightUpLeg -175.401098 -12.179980 40.640792
RightLeg 52.213830 -0.000000 -0.000000
RightFoot 38.055016 -9.813729 21.422855
RightToeBase 33.060388 -0.000000 -0.000000
286
root 1.540942 32.876490 -6.414414 34.783808 -11.006815 -35.995620
Spine -23.430026 28.141025 11.390317
Head -14.718561 -7.523903 16.011489
LeftShoulder -21.078280 33.716679 32.695244
LeftArm 48.271892 -60.466946 -42.142684
LeftForeArm 94.543803 -0.000000 3.698590
LeftHand -19.331846 -0.000000 67.463655
LeftHandThumb1 -26.253704 0.000000 33.147579
RightShoulder -5.426431 -15.466135 -9.126736
RightArm 92.839600 44.956052 131.904508
RightForeArm 66.179933 0.000000 41.624044
RightHand -2.305466 -0.000000 21.838896
RightHandThumb1 -24.326973 -0.000000 -32.862282
LeftUpLeg -42.554358 18.172656 25.545607
LeftLeg 39.029364 -0.000000 -0.000000
LeftFoot -21.561519 11.283014 -2.715688
LeftToeBase -0.230541 -0.000000 0.000000
RightUpLeg -175.308764 -12.831792 40.878711
RightLeg 50.562156 -0.000000 -0.000000
RightFoot 37.825014 -10.347988 21.675073
RightToeBase 33.006284 -0.000000 -0.000000
